<svg width="17" height="13" viewBox="0 0 17 13" fill="none" 
    xmlns="http://www.w3.org/2000/svg">
    <path fill-rule="evenodd" clip-rule="evenodd" d="M14 0C13.7735 0 13.5752 0.152292 13.5169 0.371169L13.2805 1.25766C13.1637 1.69542 12.7673 2 12.3142 2H0.5C0.344163 2 0.197238 2.07266 0.102646 2.1965C0.00805477 2.32035 -0.0233855 2.48121 0.0176177 2.63156L1.51762 8.13156C1.57694 8.34909 1.77452 8.5 2 8.5H12C12.2265 8.5 12.4248 8.34771 12.4831 8.12883L13.9498 2.62883L14.1862 1.74234C14.3029 1.30458 14.6994 1 15.1524 1H16.5C16.7761 1 17 0.776142 17 0.5C17 0.223858 16.7761 0 16.5 0H14ZM1.49911 4.26312C1.32562 3.62698 1.8045 3 2.46388 3H11.5142C12.1713 3 12.6498 3.62282 12.4805 4.25766L11.8138 6.75766C11.6971 7.19542 11.3006 7.5 10.8476 7.5H3.14569C2.69474 7.5 2.29958 7.19818 2.18093 6.76312L1.49911 4.26312ZM4 12C4.55228 12 5 11.5523 5 11C5 10.4477 4.55228 10 4 10C3.44772 10 3 10.4477 3 11C3 11.5523 3.44772 12 4 12ZM4 13C5.10457 13 6 12.1046 6 11C6 9.89543 5.10457 9 4 9C2.89543 9 2 9.89543 2 11C2 12.1046 2.89543 13 4 13ZM10 12C10.5523 12 11 11.5523 11 11C11 10.4477 10.5523 10 10 10C9.44771 10 9 10.4477 9 11C9 11.5523 9.44771 12 10 12ZM10 13C11.1046 13 12 12.1046 12 11C12 9.89543 11.1046 9 10 9C8.89543 9 8 9.89543 8 11C8 12.1046 8.89543 13 10 13Z" fill="black"/>
</svg>
