<svg width="49" height="37" viewBox="0 0 49 37" fill="none" 
    xmlns="http://www.w3.org/2000/svg">
    <path fill-rule="evenodd" clip-rule="evenodd" d="M32 14C30.616 14 29.2685 14.1128 27.9741 14.3264C28.2093 11.4546 29.7756 8.19486 32.4853 5.48527C37.1716 0.798987 43.5032 -0.467371 46.6274 2.65684C49.7516 5.78104 48.4853 12.1126 43.799 16.799C43.7195 16.8784 43.6396 16.9569 43.5592 17.0344C40.4321 15.1404 36.4005 14 32 14ZM17.7138 2.71384C20.4767 -0.0490357 25.748 0.621741 30.1714 4.05497C27.0085 7.41386 25.305 11.4726 25.2333 15.1099C23.6128 15.6134 22.1152 16.2839 20.782 17.0913C20.7017 17.0139 20.6217 16.9354 20.5423 16.8559C15.856 12.1697 14.5897 5.83799 17.7138 2.71384ZM41.9627 19.4227C45.0473 21.2566 47 23.971 47 27C47 30.029 45.0473 32.7434 41.9627 34.5773C42.6385 32.1673 43 29.6259 43 27C43 24.3741 42.6385 21.8327 41.9627 19.4227ZM39 27C39 23.626 38.3037 20.4145 37.0471 17.5016C35.6169 17.1761 34.0883 17 32.5 17C32.4415 17 32.3831 17.0002 32.3248 17.0007C34.0262 19.9423 35 23.3574 35 27C35 30.6426 34.0262 34.0577 32.3248 36.9993C32.3831 36.9998 32.4415 37 32.5 37C34.0883 37 35.6169 36.8239 37.0471 36.4984C38.3037 33.5855 39 30.374 39 27ZM31 27C31 23.4502 29.844 20.1704 27.8879 17.5165C26.4431 17.8506 25.0998 18.3372 23.8983 18.9488C25.8259 21.0778 27 23.9018 27 27C27 30.0982 25.8259 32.9222 23.8983 35.0512C25.0998 35.6628 26.4431 36.1494 27.8879 36.4835C29.844 33.8296 31 30.5498 31 27ZM23 27C23 29.2384 22.0807 31.2622 20.5989 32.7142L20.5989 32.7142C20.3221 32.9854 20.0257 33.2368 19.712 33.4658C18.4939 34.355 17.0151 34.9083 15.4117 34.9896C15.2753 34.9965 15.1381 35 15 35C10.5817 35 7 31.4183 7 27C7 24.9485 7.77222 23.0773 9.04186 21.6613C7.99194 19.8755 6.0011 18.9794 4.06429 19.2396C4.21902 19.3778 4.35473 19.5426 4.4641 19.7321C5.01638 20.6886 4.68864 21.9118 3.73205 22.4641C2.77546 23.0164 1.55228 22.6886 1 21.7321C0.447723 20.7755 0.775465 19.5523 1.73205 19C4.5157 17.3929 8.05184 18.2698 9.77369 20.943C10.4266 20.3791 11.1717 19.919 11.9833 19.5883C11.8276 17.6782 10.5984 16.0719 8.89995 15.3737C8.96487 15.5707 9 15.7812 9 16C9 17.1046 8.10457 18 7 18C5.89543 18 5 17.1046 5 16C5 14.8954 5.89543 14 7 14C10.0644 14 12.5923 16.2973 12.9553 19.2637C13.608 19.0916 14.2933 19 15 19C15.5523 19 16.0915 19.056 16.6123 19.1625C18.147 19.4766 19.5216 20.2301 20.5989 21.2858L20.5989 21.2858C22.0807 22.7378 23 24.7615 23 27ZM13 25C13 26.1046 12.1046 27 11 27C9.89543 27 9 26.1046 9 25C9 23.8954 9.89543 23 11 23C12.1046 23 13 23.8954 13 25Z" fill="#C4C4C4"/>
</svg>
